<svg width="60" height="60" viewBox="0 0 60 60" fill="none" xmlns="http://www.w3.org/2000/svg">
<path d="M52.524 45.9969C56.1005 42.8094 58.1256 38.5608 58.1256 34.1518C58.1256 29.4662 55.9321 25.0841 51.949 21.812C48.0724 18.6285 42.9412 16.875 37.5 16.875C32.0588 16.875 26.9276 18.6285 23.0516 21.8122C19.0685 25.0841 16.875 29.4662 16.875 34.1518C16.875 38.8375 19.0685 43.2196 23.0516 46.4917C26.9276 49.6754 32.0588 51.4288 37.5 51.4288C38.225 51.4288 38.9545 51.3968 39.6779 51.3332L40.9138 52.4044C45.1714 56.0938 50.6163 58.1248 56.25 58.125H58.125V54.1339L57.5759 53.5849C55.4095 51.4122 53.6929 48.8337 52.524 45.9969V45.9969ZM43.3698 49.5703L40.89 47.421L40.0631 47.5223C39.2127 47.6263 38.3568 47.6785 37.5 47.6786C28.1953 47.6786 20.625 41.6105 20.625 34.1518C20.625 26.6932 28.1953 20.625 37.5 20.625C46.8047 20.625 54.375 26.6931 54.375 34.1518C54.375 37.8678 52.5211 41.3371 49.1548 43.9204L48.0749 44.749L48.5732 46.1593C49.5943 49.0398 51.0952 51.7268 53.0125 54.1066C49.442 53.5107 46.1054 51.9409 43.3698 49.5703V49.5703Z" fill="white"/>
<path d="M7.05293 37.2042C8.80808 34.9825 10.1861 32.4874 11.132 29.8187L11.6265 28.4154L10.5476 27.5873C7.3732 25.1515 5.625 21.8822 5.625 18.3817C5.625 11.3476 12.7745 5.625 21.5625 5.625C28.0275 5.625 33.6055 8.72227 36.1028 13.1602C36.5665 13.1377 37.0322 13.125 37.5 13.125C38.4396 13.125 39.3706 13.1706 40.293 13.2618C39.328 10.7616 37.652 8.47922 35.3477 6.58664C31.6491 3.54832 26.7539 1.875 21.5625 1.875C16.3711 1.875 11.4759 3.54832 7.77703 6.58664C3.97102 9.71309 1.875 13.902 1.875 18.3817C1.875 22.577 3.79125 26.6194 7.17773 29.6602C6.07259 32.3197 4.45776 34.7374 2.42426 36.7768L1.875 37.326V41.25H3.75C7.21724 41.2496 10.6368 40.4421 13.738 38.8916C13.3979 37.6027 13.1987 36.2807 13.1438 34.9488C11.2615 36.052 9.19976 36.8154 7.05293 37.2042Z" fill="white"/>
</svg>
