<svg width="47" height="41" viewBox="0 0 47 41" fill="none" xmlns="http://www.w3.org/2000/svg">
<path d="M42.4296 0.601371L6.08918 3.02381C5.41237 3.07051 3.28776 4.30623 2.99682 6.98668L0.566727 29.4402C0.440399 30.6116 0.536868 33.3479 2.82838 33.7744L38.1918 40.3442C38.4154 40.3855 38.6428 40.4062 38.8671 40.4062C39.7223 40.4062 42.8032 39.7187 43.1232 36.7366L46.433 6.16364C46.7439 3.30556 45.0074 0.426043 42.4296 0.601371ZM6.18565 4.39351L42.5222 1.97031C42.9796 1.93504 43.4362 2.04777 43.8245 2.29187L19.2771 24.5294L5.50424 4.72579C5.73316 4.52597 5.97051 4.40806 6.18565 4.39351ZM1.95098 29.5849L4.38107 7.13215C4.42548 6.72637 4.52731 6.32442 4.6766 5.95692L13.639 18.6487L1.96706 30.6422C1.91793 30.2918 1.91253 29.9366 1.95098 29.5849ZM38.4499 38.9944L3.0864 32.4253C2.89193 32.3894 2.69899 32.2577 2.52673 32.051L13.7117 20.5566L14.436 19.8117L19.0007 26.6043L26.1195 20.3821L28.4125 23.44L39.9176 38.7793C39.4654 39.0108 38.9494 39.0864 38.4499 38.9944ZM45.0495 5.3314L41.7397 35.9043C41.6594 36.6485 41.3899 37.3376 40.9772 37.8812L27.1569 19.4557L44.7349 3.33159C45.0159 3.90351 45.1284 4.60023 45.0495 5.3314Z" fill="white"/>
</svg>
