<svg width="65" height="65" viewBox="0 0 65 65" fill="none" xmlns="http://www.w3.org/2000/svg">
<path fill-rule="evenodd" clip-rule="evenodd" d="M23.0212 10.8333H17.6045C16.5271 10.8333 15.4937 11.2613 14.7319 12.0231C13.97 12.785 13.542 13.8183 13.542 14.8958V47.3958C13.542 48.4732 13.97 49.5065 14.7319 50.2684C15.4937 51.0302 16.5271 51.4583 17.6045 51.4583H40.6253C41.7028 51.4583 42.7361 51.0302 43.4979 50.2684C44.2598 49.5065 44.6878 48.4732 44.6878 47.3958V14.8958C44.6878 13.8183 44.2598 12.785 43.4979 12.0231C42.7361 11.2613 41.7028 10.8333 40.6253 10.8333H39.2712V13.5416H40.6253C40.9845 13.5416 41.3289 13.6843 41.5829 13.9382C41.8368 14.1922 41.9795 14.5366 41.9795 14.8958V47.3958C41.9795 47.7549 41.8368 48.0993 41.5829 48.3533C41.3289 48.6072 40.9845 48.7499 40.6253 48.7499H17.6045C17.2453 48.7499 16.9009 48.6072 16.647 48.3533C16.393 48.0993 16.2503 47.7549 16.2503 47.3958V14.8958C16.2503 14.5366 16.393 14.1922 16.647 13.9382C16.9009 13.6843 17.2453 13.5416 17.6045 13.5416H23.0212V10.8333ZM25.7295 13.5416H36.5628V10.8333H25.7295V13.5416Z" fill="white"/>
<path fill-rule="evenodd" clip-rule="evenodd" d="M18.958 25.7292C18.958 25.37 19.1007 25.0256 19.3546 24.7716C19.6086 24.5177 19.953 24.375 20.3122 24.375H37.9163C38.2755 24.375 38.6199 24.5177 38.8739 24.7716C39.1278 25.0256 39.2705 25.37 39.2705 25.7292C39.2705 26.0883 39.1278 26.4328 38.8739 26.6867C38.6199 26.9407 38.2755 27.0833 37.9163 27.0833H20.3122C19.953 27.0833 19.6086 26.9407 19.3546 26.6867C19.1007 26.4328 18.958 26.0883 18.958 25.7292ZM18.958 32.5C18.958 32.1409 19.1007 31.7964 19.3546 31.5425C19.6086 31.2885 19.953 31.1458 20.3122 31.1458H29.7913C30.1505 31.1458 30.4949 31.2885 30.7489 31.5425C31.0028 31.7964 31.1455 32.1409 31.1455 32.5C31.1455 32.8591 31.0028 33.2036 30.7489 33.4575C30.4949 33.7115 30.1505 33.8542 29.7913 33.8542H20.3122C19.953 33.8542 19.6086 33.7115 19.3546 33.4575C19.1007 33.2036 18.958 32.8591 18.958 32.5ZM18.958 39.2708C18.958 38.9117 19.1007 38.5672 19.3546 38.3133C19.6086 38.0593 19.953 37.9167 20.3122 37.9167H35.208C35.5672 37.9167 35.9116 38.0593 36.1656 38.3133C36.4195 38.5672 36.5622 38.9117 36.5622 39.2708C36.5622 39.63 36.4195 39.9744 36.1656 40.2284C35.9116 40.4823 35.5672 40.625 35.208 40.625H20.3122C19.953 40.625 19.6086 40.4823 19.3546 40.2284C19.1007 39.9744 18.958 39.63 18.958 39.2708Z" fill="white"/>
<path fill-rule="evenodd" clip-rule="evenodd" d="M10.8333 13.5417V47.3959C10.8333 49.1917 11.5467 50.9138 12.8165 52.1836C14.0862 53.4534 15.8084 54.1668 17.6042 54.1668H40.625V56.8751H17.6042C15.0901 56.8751 12.6791 55.8764 10.9014 54.0987C9.1237 52.321 8.125 49.9099 8.125 47.3959V13.5417H10.8333ZM48.75 17.6042C48.75 16.5268 49.178 15.4935 49.9399 14.7316C50.7017 13.9698 51.7351 13.5417 52.8125 13.5417C53.8899 13.5417 54.9233 13.9698 55.6851 14.7316C56.447 15.4935 56.875 16.5268 56.875 17.6042V45.0979L52.8125 51.1916L48.75 45.0979V17.6042ZM52.8125 16.2501C52.4534 16.2501 52.1089 16.3928 51.855 16.6467C51.601 16.9007 51.4583 17.2451 51.4583 17.6042V44.2773L52.8125 46.3085L54.1667 44.2773V17.6042C54.1667 17.2451 54.024 16.9007 53.77 16.6467C53.5161 16.3928 53.1716 16.2501 52.8125 16.2501Z" fill="white"/>
<path fill-rule="evenodd" clip-rule="evenodd" d="M55.5208 23.0208H50.1042V20.3125H55.5208V23.0208ZM35.2083 8.125C35.5675 8.125 35.9119 8.26767 36.1659 8.52163C36.4198 8.77558 36.5625 9.12002 36.5625 9.47917V14.8958C36.5625 15.255 36.4198 15.5994 36.1659 15.8534C35.9119 16.1073 35.5675 16.25 35.2083 16.25C34.8492 16.25 34.5047 16.1073 34.2508 15.8534C33.9968 15.5994 33.8542 15.255 33.8542 14.8958V9.47917C33.8542 9.12002 33.9968 8.77558 34.2508 8.52163C34.5047 8.26767 34.8492 8.125 35.2083 8.125ZM21.6667 8.125C22.0258 8.125 22.3703 8.26767 22.6242 8.52163C22.8782 8.77558 23.0208 9.12002 23.0208 9.47917V14.8958C23.0208 15.255 22.8782 15.5994 22.6242 15.8534C22.3703 16.1073 22.0258 16.25 21.6667 16.25C21.3075 16.25 20.9631 16.1073 20.7091 15.8534C20.4552 15.5994 20.3125 15.255 20.3125 14.8958V9.47917C20.3125 9.12002 20.4552 8.77558 20.7091 8.52163C20.9631 8.26767 21.3075 8.125 21.6667 8.125Z" fill="white"/>
</svg>
