<svg width="18" height="19" viewBox="0 0 18 19" fill="none" xmlns="http://www.w3.org/2000/svg">
<path d="M17.1765 9.27616C17.1804 9.09763 17.1359 8.92136 17.0477 8.76609C16.9595 8.61081 16.8309 8.48232 16.6756 8.39426L2.59283 0.327432C2.41485 0.226311 2.21024 0.181918 2.00636 0.200184C1.80248 0.21845 1.60902 0.298506 1.45185 0.429653C1.29468 0.560801 1.18128 0.736792 1.1268 0.93411C1.07232 1.13143 1.07936 1.34067 1.14698 1.53388L3.7457 9.03155C3.76846 9.10499 3.76768 9.18372 3.74349 9.2567L0.997876 16.7018C0.92951 16.8797 0.913975 17.0735 0.95314 17.2599C0.992305 17.4464 1.0845 17.6175 1.21864 17.7528L1.28317 17.8186C1.43882 17.9502 1.63053 18.0319 1.83327 18.0529C2.03601 18.0739 2.24039 18.0333 2.41972 17.9365L16.6584 10.1481C16.8154 10.0631 16.9465 9.93712 17.0377 9.7836C17.129 9.63009 17.1769 9.45474 17.1765 9.27616ZM16.3323 9.56414L2.09962 17.3467C2.04029 17.3806 1.97183 17.395 1.90388 17.388C1.83592 17.3809 1.77189 17.3527 1.72077 17.3074C1.67014 17.2624 1.63433 17.2032 1.61805 17.1374C1.60177 17.0717 1.60579 17.0025 1.62958 16.9391L4.36932 9.48802L9.49449 9.53248C9.54196 9.53974 9.59043 9.53671 9.63663 9.5236C9.68283 9.51049 9.72568 9.48761 9.76226 9.45651C9.79885 9.4254 9.82832 9.3868 9.84869 9.34331C9.86906 9.29982 9.87985 9.25246 9.88032 9.20444C9.88079 9.15642 9.87094 9.10886 9.85143 9.06498C9.83192 9.0211 9.80321 8.98192 9.76724 8.9501C9.73127 8.91828 9.68889 8.89456 9.64296 8.88055C9.59702 8.86654 9.54862 8.86256 9.50101 8.86888L4.37596 8.81257L1.78323 1.30904C1.76069 1.24517 1.75803 1.17598 1.7756 1.11057C1.79317 1.04516 1.83014 0.986607 1.88164 0.942624C1.93364 0.898313 1.99822 0.871412 2.0663 0.865704C2.13438 0.859996 2.20253 0.875768 2.26119 0.910802L16.3381 8.97164L16.4085 9.04344C16.4695 9.10553 16.5047 9.18847 16.5069 9.27551C16.5022 9.33388 16.484 9.39035 16.4537 9.44045C16.4234 9.49055 16.3818 9.5329 16.3323 9.56414Z" fill="white"/>
</svg>
