<svg width="171" height="80" viewBox="0 0 171 80" fill="none" xmlns="http://www.w3.org/2000/svg">
<path d="M3.31706 37.2263C3.10304 36.7675 2.97849 36.2042 2.94342 35.5363C2.90768 34.86 2.93737 34.0427 3.03248 33.0845C3.13603 32.1256 3.32291 31.0923 3.59313 29.9847C4.21631 27.4148 5.1575 25.113 6.4167 23.0794C6.63576 22.7312 6.87607 22.547 7.13765 22.5266C7.40766 22.5055 7.67384 22.5442 7.93619 22.6426C8.20697 22.7404 8.44565 22.8618 8.65222 23.007C9.17318 23.3739 9.35915 23.6905 9.21012 23.9568C8.16898 25.9565 7.32855 27.7538 6.68882 29.3487C8.59371 29.0644 10.234 28.3253 11.6095 27.1315C13.1129 25.8343 13.7992 24.3462 13.6683 22.667C13.5795 21.5279 12.9576 20.8463 11.8026 20.6222C11.4494 20.5564 11.0324 20.5422 10.5514 20.5797C10.0789 20.6165 9.58919 20.7056 9.08236 20.847C8.58332 20.9792 8.10411 21.1482 7.64474 21.3537C6.73509 21.7727 5.91414 22.2951 5.18191 22.9209C4.97502 23.0983 4.77875 23.1943 4.59312 23.2088C4.40748 23.2232 4.20136 23.1926 3.97474 23.1169C3.74746 23.0327 3.54385 22.9255 3.36391 22.7952C2.66235 22.2896 2.71012 21.7044 3.50723 21.0395C4.66366 20.0835 6.42598 19.3858 8.79419 18.9466C9.23811 18.8696 9.83135 18.8021 10.5739 18.7442C11.3249 18.6857 12.098 18.7485 12.8934 18.9327C13.6972 19.1163 14.3515 19.3964 14.8562 19.773C15.7858 20.4816 16.3046 21.5278 16.4124 22.9116C16.5097 24.1604 16.1121 25.4308 15.2196 26.7228C14.4042 27.9154 13.3108 28.9175 11.9393 29.729C12.6465 29.9795 13.1902 30.3658 13.5704 30.888C13.9585 31.401 14.1687 31.9746 14.2012 32.6088C14.2329 33.2345 14.1514 33.8224 13.9566 34.3724C13.7695 34.9133 13.4945 35.4144 13.1314 35.8756C12.7762 36.3278 12.3498 36.7388 11.8523 37.1086C11.3626 37.4694 10.839 37.7776 10.2817 38.0333C9.143 38.5634 7.97034 38.8755 6.76372 38.9696C5.06769 39.1018 3.9188 38.5207 3.31706 37.2263ZM5.94997 31.4691C5.43297 33.1139 5.20363 34.5282 5.26194 35.7122C5.28978 36.2873 5.46353 36.7194 5.78319 37.0086C6.11063 37.2887 6.53593 37.4083 7.05908 37.3676C7.58223 37.3268 8.11339 37.1708 8.65254 36.8996C9.19169 36.6284 9.67818 36.2806 10.112 35.8563C11.1055 34.879 11.5751 33.8237 11.5207 32.6904C11.4658 31.659 10.9471 30.9948 9.96468 30.6978C9.66924 30.6105 9.35567 30.5628 9.02395 30.5547C8.62869 30.6024 8.07967 30.7471 7.37691 30.9886C6.68259 31.2295 6.20694 31.3897 5.94997 31.4691ZM17.0151 33.5865C16.9917 32.8498 17.0594 32.1399 17.2184 31.4568C17.3768 30.7654 17.6088 30.0936 17.9145 29.4416C18.2196 28.7811 18.5867 28.154 19.0158 27.5603C19.4527 26.9575 19.9332 26.4234 20.4572 25.9581C21.5935 24.9612 22.7776 24.4147 24.0095 24.3187C25.4524 24.2063 26.4607 24.7262 27.0344 25.8785C27.2347 26.2703 27.3524 26.745 27.3873 27.3026C27.4216 27.8517 27.356 28.3704 27.1903 28.8588C27.0239 29.3386 26.7745 29.7868 26.4419 30.2032C26.1171 30.6105 25.7176 30.9855 25.2434 31.328C24.7777 31.6699 24.2619 31.9691 23.6962 32.2254C22.5309 32.7407 21.2654 33.06 19.8998 33.1834C19.8752 33.3042 19.8679 33.483 19.8779 33.7199C19.8879 33.9568 19.9339 34.2207 20.016 34.5114C20.0974 34.7937 20.2187 35.0432 20.3799 35.2598C20.7231 35.7424 21.1816 35.9613 21.7554 35.9166C22.7342 35.8403 23.6654 35.4791 24.5488 34.833C24.8628 34.6133 25.1131 34.3943 25.2998 34.176C25.4943 33.9486 25.6675 33.829 25.8194 33.8172C25.9713 33.8053 26.1093 33.888 26.2335 34.065C26.3654 34.233 26.4403 34.4309 26.458 34.6588C26.4929 35.106 26.3966 35.504 26.1691 35.8528C25.1888 36.9988 23.6481 37.6537 21.547 37.8175C20.3066 37.9141 19.282 37.6205 18.4732 36.9365C17.5636 36.1584 17.0776 35.0418 17.0151 33.5865ZM23.8623 26.0238C22.9763 26.0929 22.1714 26.7668 21.4476 28.0457C20.8373 29.1459 20.377 30.4297 20.0669 31.897C21.4649 31.6437 22.645 30.9915 23.6072 29.9402C24.4897 28.9546 24.8984 28.0441 24.8333 27.2088C24.7682 26.3734 24.4445 25.9784 23.8623 26.0238ZM28.6793 34.8931C28.6589 34.6316 28.695 34.3868 28.7876 34.1589C28.8879 33.9218 29.0166 33.7208 29.1735 33.5558C29.5023 33.1991 29.8607 33.0056 30.2489 32.9754C30.5864 32.949 30.7686 33.1089 30.7956 33.4548C30.864 34.3324 31.2028 34.9214 31.8119 35.222C32.0327 35.3322 32.2571 35.3783 32.4849 35.3606C32.7127 35.3428 32.9048 35.3024 33.0612 35.2393C33.2176 35.1761 33.359 35.0845 33.4854 34.9643C33.7701 34.6959 33.8993 34.3929 33.873 34.0554C33.8467 33.7179 33.7468 33.4158 33.5732 33.1492C33.399 32.8742 33.1858 32.5894 32.9336 32.295L32.1332 31.3386C31.0155 30.0675 30.4122 28.8623 30.3234 27.7232C30.2498 26.7782 30.5838 25.8905 31.3256 25.0601C32.1692 24.12 33.304 23.5944 34.73 23.4833C35.9788 23.3859 36.9774 23.618 37.7257 24.1793C38.3383 24.6325 38.6696 25.1797 38.7196 25.821C38.7715 26.4876 38.5598 27.0389 38.0844 27.4749C37.6564 27.8648 37.2109 28.0311 36.7481 27.9738C36.5423 27.9474 36.3783 27.8583 36.2561 27.7065C36.1332 27.5463 36.0973 27.3581 36.1484 27.1419C36.1995 26.9257 36.2161 26.7037 36.1984 26.4759C36.1806 26.248 36.122 26.0404 36.0225 25.8529C35.923 25.6654 35.7962 25.5097 35.6423 25.3859C35.3252 25.1305 35.0022 25.0156 34.6731 25.0412C34.3525 25.0662 34.0896 25.1249 33.8846 25.2173C33.6789 25.3012 33.5012 25.4169 33.3514 25.5644C33.046 25.8938 32.9107 26.2822 32.9455 26.7294C32.9797 27.1681 33.0853 27.5419 33.2621 27.8507C33.439 28.1595 33.6496 28.4657 33.894 28.7693C34.1468 29.0721 34.4168 29.3779 34.7041 29.6866C34.9913 29.9953 35.2587 30.3225 35.5064 30.6683C36.1044 31.4791 36.4287 32.2093 36.4794 32.8591C36.5293 33.5004 36.4364 34.0509 36.2006 34.5107C35.9641 34.9621 35.6429 35.3607 35.2369 35.7064C34.3704 36.4616 33.3676 36.8835 32.2285 36.9723C31.14 37.0571 30.2589 36.8626 29.5853 36.3888C29.028 35.9908 28.7259 35.4922 28.6793 34.8931ZM47.5545 32.327C47.7992 32.308 47.9344 32.463 47.96 32.792C47.9817 33.0705 47.9184 33.3471 47.77 33.6218C47.5803 34.129 47.1609 34.6286 46.5116 35.1206C45.7741 35.6789 45.013 35.9887 44.2282 36.0498C42.8697 36.1557 41.9617 35.6153 41.5042 34.4285C40.9614 33.0191 41.3685 29.9101 42.7256 25.1013C41.7486 25.0925 41.2081 24.9649 41.104 24.7183C41.0728 24.6443 41.0538 24.5652 41.0473 24.4808C41.04 24.388 41.0698 24.2795 41.1365 24.1555C41.2117 24.0308 41.3083 23.9086 41.4263 23.7891C41.7026 23.5214 41.9926 23.3757 42.2964 23.352L43.2963 23.2741C44.0412 21.0682 44.5962 19.8025 44.9613 19.477C45.1364 19.3275 45.3379 19.2439 45.5657 19.2261C45.7936 19.2084 45.9857 19.2231 46.1422 19.2703C46.2987 19.3176 46.4403 19.3914 46.567 19.4919C46.8567 19.724 47.0137 19.9962 47.0381 20.3084C47.0512 20.4771 47.0157 20.6751 46.9316 20.9024L46.1538 23.0132L46.4575 22.9895C46.9807 22.9487 47.4022 22.9116 47.7222 22.8782C47.7222 22.8782 47.9624 22.8552 48.4427 22.8093C48.6024 22.7884 48.8003 22.7687 49.0366 22.7503C49.2813 22.7312 49.4105 22.8103 49.4243 22.9875C49.5111 24.1013 48.2382 24.7608 45.6056 24.966L45.5043 24.9739L44.8173 27.2685C44.0521 29.9768 43.7106 31.8583 43.7928 32.9131C43.8158 33.2084 43.9014 33.4352 44.0495 33.5934C44.197 33.7432 44.4564 33.8036 44.8277 33.7747C45.199 33.7458 45.5316 33.6562 45.8255 33.5059C46.1194 33.3557 46.3743 33.1958 46.5903 33.0261C46.8056 32.848 46.9885 32.6895 47.139 32.5504C47.2979 32.4107 47.4364 32.3362 47.5545 32.327ZM59.6305 29.7687L59.5926 30.7522C59.6721 31.7732 60.0681 32.4427 60.7805 32.7607C61.0267 32.8688 61.3143 32.9101 61.6433 32.8844C61.9724 32.8588 62.2635 32.7809 62.5165 32.6508C62.7689 32.5123 62.9722 32.3437 63.1265 32.1449C63.4513 31.7376 63.5943 31.285 63.5555 30.7871C63.5167 30.2893 63.3803 29.8458 63.1462 29.4565C62.9121 29.0673 62.6274 28.682 62.2921 28.3006L61.1829 27.1392C60.2881 26.2241 59.6703 25.3767 59.3293 24.5968C58.9877 23.8084 58.7907 23.0768 58.738 22.4017C58.6854 21.7267 58.7159 21.0834 58.8296 20.4718C58.951 19.8511 59.1383 19.2592 59.3916 18.6962C59.6441 18.1247 59.9594 17.595 60.3374 17.1071C60.7153 16.6193 61.1446 16.1911 61.6252 15.8225C62.6247 15.0315 63.6434 14.5956 64.6813 14.5147C65.7192 14.4338 66.5404 14.5142 67.145 14.7557C67.7495 14.9972 68.2461 15.3235 68.6347 15.7347C69.3573 16.5103 69.7643 17.4846 69.8557 18.6574C69.9406 19.7459 69.7125 20.7951 69.1715 21.8051C68.6745 22.7267 68.0851 23.3329 67.4031 23.6238C67.2572 23.7115 67.0492 23.7659 66.7792 23.787C66.5176 23.8074 66.291 23.7868 66.0995 23.7254C65.9157 23.6548 65.751 23.5573 65.6055 23.4328C65.2872 23.1605 65.1145 22.8513 65.0876 22.5054C65.0691 22.2691 65.1287 22.1074 65.2662 22.0203C65.8806 21.6244 66.3983 21.0789 66.8196 20.3839C67.2784 19.6266 67.4928 18.8925 67.4629 18.1818C67.4323 17.4626 67.2182 16.9487 66.8207 16.6401C66.4309 16.3224 65.9322 16.1872 65.3247 16.2346C64.7171 16.2819 64.1795 16.4639 63.7118 16.7805C63.2435 17.0887 62.8502 17.4886 62.532 17.9803C61.8501 19.0352 61.5622 20.2418 61.668 21.6003C61.7384 22.5032 62.1249 23.4324 62.8276 24.3878C63.1227 24.7978 63.4386 25.2019 63.7752 25.6001C64.1196 25.9892 64.444 26.3926 64.7482 26.8104C65.4437 27.7834 65.823 28.6749 65.8862 29.4849C65.9493 30.295 65.8549 30.9899 65.603 31.5699C65.3595 32.1491 65.0134 32.6642 64.5646 33.1152C63.5965 34.0905 62.45 34.6298 61.1252 34.733C59.8764 34.8303 58.8856 34.534 58.1527 33.8441C57.5659 33.2871 57.2453 32.6584 57.1907 31.9581C57.1315 31.1986 57.2967 30.5406 57.6863 29.9839C57.9845 29.5617 58.2825 29.3007 58.5803 29.2011C59.2331 28.972 59.5832 29.1612 59.6305 29.7687ZM69.8199 29.4712C69.7964 28.7345 69.8642 28.0246 70.0232 27.3416C70.1815 26.6501 70.4135 25.9783 70.7193 25.3263C71.0243 24.6659 71.3914 24.0388 71.8206 23.445C72.2575 22.8422 72.7379 22.3081 73.262 21.8428C74.3982 20.8459 75.5823 20.2995 76.8143 20.2035C78.2572 20.091 79.2655 20.6109 79.8391 21.7632C80.0395 22.1551 80.1571 22.6298 80.1921 23.1874C80.2264 23.7365 80.1607 24.2552 79.995 24.7435C79.8287 25.2234 79.5792 25.6715 79.2466 26.0879C78.9218 26.4953 78.5223 26.8702 78.0482 27.2128C77.5824 27.5547 77.0667 27.8538 76.5009 28.1101C75.3356 28.6254 74.0701 28.9447 72.7045 29.0682C72.6799 29.1889 72.6727 29.3678 72.6826 29.6047C72.6926 29.8416 72.7386 30.1054 72.8207 30.3961C72.9021 30.6784 73.0234 30.9279 73.1846 31.1445C73.5279 31.6271 73.9864 31.8461 74.5602 31.8014C75.539 31.7251 76.4701 31.3639 77.3535 30.7178C77.6675 30.4981 77.9178 30.279 78.1046 30.0608C78.2991 29.8334 78.4723 29.7138 78.6242 29.7019C78.776 29.6901 78.9141 29.7727 79.0382 29.9498C79.1702 30.1178 79.245 30.3157 79.2628 30.5435C79.2976 30.9907 79.2013 31.3887 78.9738 31.7375C77.9935 32.8836 76.4528 33.5385 74.3517 33.7022C73.1114 33.7989 72.0868 33.5052 71.2779 32.8212C70.3683 32.0432 69.8823 30.9265 69.8199 29.4712ZM76.667 21.9085C75.781 21.9776 74.9761 22.6515 74.2524 23.9304C73.642 25.0306 73.1817 26.3144 72.8716 27.7817C74.2696 27.5285 75.4497 26.8762 76.4119 25.825C77.2944 24.8394 77.7031 23.9289 77.638 23.0935C77.5729 22.2582 77.2492 21.8632 76.667 21.9085ZM82.8459 32.4036C82.6178 32.2006 82.4231 31.9356 82.2618 31.6086C82.1083 31.2725 82.0141 30.8809 81.9792 30.4337C81.9437 29.978 81.9976 29.3626 82.141 28.5874C82.2927 27.8116 82.4911 26.9259 82.7361 25.9306L83.5537 22.6962C84.7222 18.1907 85.3311 14.7306 85.3806 12.3158C85.4013 11.6011 85.7197 11.2197 86.3356 11.1717C86.7238 11.1415 87.0517 11.2093 87.3193 11.3752C87.8376 11.7084 88.1061 12.1034 88.1247 12.5604C88.1434 13.0173 88.1066 13.5805 88.0145 14.2498C87.9216 14.9107 87.7916 15.6382 87.6242 16.4322C87.4563 17.2179 87.2581 18.0525 87.0299 18.9362L85.6837 24.211C84.9071 27.2088 84.552 29.1338 84.6185 29.9861C84.654 30.4417 84.8574 30.6551 85.2286 30.6261C85.583 30.5985 85.8977 30.4976 86.1728 30.3233C86.4563 30.1484 86.6402 30.0577 86.7246 30.0511C86.9018 30.0373 86.9973 30.119 87.0111 30.2962C87.0696 31.0472 86.7347 31.7057 86.0063 32.2719C85.5186 32.6579 85.0595 32.8677 84.6292 32.9013C84.2073 32.9341 83.8616 32.9101 83.5921 32.8293C83.3227 32.7484 83.0739 32.6065 82.8459 32.4036ZM90.0856 31.8393C89.8576 31.6364 89.6629 31.3714 89.5016 31.0444C89.3481 30.7083 89.2539 30.3167 89.219 29.8695C89.1835 29.4138 89.2374 28.7984 89.3807 28.0232C89.5325 27.2473 89.7309 26.3617 89.9759 25.3664L90.7935 22.1319C91.9619 17.6265 92.5709 14.1664 92.6204 11.7516C92.6411 11.0369 92.9594 10.6555 93.5754 10.6075C93.9636 10.5773 94.2914 10.6451 94.559 10.811C95.0774 11.1441 95.3459 11.5392 95.3645 11.9961C95.3831 12.4531 95.3464 13.0163 95.2542 13.6856C95.1614 14.3465 95.0313 15.074 94.864 15.868C94.696 16.6536 94.4979 17.4883 94.2697 18.372L92.9235 23.6468C92.1469 26.6446 91.7918 28.5696 91.8582 29.4218C91.8937 29.8775 92.0971 30.0908 92.4684 30.0619C92.8228 30.0343 93.1375 29.9334 93.4126 29.7591C93.6961 29.5842 93.88 29.4935 93.9644 29.4869C94.1416 29.4731 94.2371 29.5548 94.2509 29.732C94.3094 30.483 93.9745 31.1415 93.2461 31.7076C92.7583 32.0937 92.2993 32.3035 91.8689 32.337C91.447 32.3699 91.1014 32.3459 90.8319 32.2651C90.5624 32.1842 90.3137 32.0423 90.0856 31.8393ZM102.328 15.2354C102.157 15.444 101.959 15.6207 101.732 15.7657C101.505 15.9022 101.262 15.9976 101.003 16.0517C100.744 16.0974 100.491 16.0746 100.247 15.9834C100.01 15.8914 99.7998 15.7508 99.6153 15.5614C99.2196 15.1678 99.005 14.7558 98.9714 14.3255C98.9379 13.8951 98.9804 13.5692 99.099 13.3478C99.2253 13.1172 99.3887 12.9262 99.5891 12.7747C99.9738 12.4816 100.343 12.3212 100.698 12.2936C101.061 12.2653 101.341 12.2689 101.539 12.3044C101.745 12.3393 101.938 12.4092 102.116 12.5142C102.551 12.7604 102.784 13.086 102.816 13.4911C102.847 13.8876 102.813 14.2255 102.716 14.5048C102.627 14.7749 102.498 15.0184 102.328 15.2354ZM100.8 29.1324C101.02 29.1153 101.141 29.2502 101.163 29.5371C101.192 29.9168 101.05 30.3227 100.736 30.7547C100.275 31.3848 99.6192 31.733 98.767 31.7995C97.7882 31.8757 97.0864 31.5314 96.6618 30.7665C96.5051 30.4986 96.4113 30.1664 96.3804 29.7698C96.3495 29.3732 96.3828 28.9292 96.4803 28.4377C96.5856 27.9371 96.7188 27.4131 96.8799 26.8657C97.0487 26.3093 97.2342 25.7473 97.4361 25.1797L97.9826 23.5327C98.3793 22.3048 98.5629 21.501 98.5333 21.1213C98.5037 20.7416 98.4421 20.4959 98.3485 20.3844C98.2627 20.2637 98.1708 20.1733 98.0727 20.113L97.8057 19.9555C97.7167 19.903 97.6667 19.8051 97.6555 19.6616C97.6437 19.5097 97.6873 19.362 97.7865 19.2185C97.8941 19.0743 98.0368 18.9443 98.2145 18.8286C98.5791 18.6049 99.0145 18.4733 99.5208 18.4339C100.761 18.3372 101.407 18.6137 101.457 19.2635C101.517 20.0229 101.386 20.9074 101.066 21.9172C100.745 22.9184 100.468 23.7295 100.237 24.3503L99.6133 26.1561C99.1563 27.4821 98.9499 28.4277 98.9939 28.9931C99.0229 29.3643 99.223 29.5355 99.5942 29.5066C99.9571 29.4783 100.228 29.4105 100.406 29.3032C100.585 29.1959 100.716 29.139 100.8 29.1324ZM112.453 19.8327C112.191 19.8531 111.84 20.1352 111.398 20.679C110.956 21.2143 110.574 21.7025 110.252 22.1436L109.276 23.5184L107.407 26.3255C106.99 27.2918 106.666 28.0938 106.436 28.7315L105.867 30.2529C105.718 30.6296 105.582 30.8991 105.458 31.0615C105.343 31.2148 105.171 31.3003 104.944 31.3181C104.724 31.3352 104.506 31.3098 104.288 31.2418C104.08 31.1817 103.895 31.0942 103.733 30.9795C103.391 30.7345 103.208 30.4516 103.183 30.131C103.173 30.0044 103.246 29.7483 103.403 29.3625L103.804 28.2998C103.932 27.9842 104.079 27.5823 104.245 27.094L104.819 25.3047C105.62 22.7379 105.993 21.0917 105.936 20.366C105.906 19.9779 105.757 19.7009 105.49 19.535L105.223 19.3775C105.134 19.325 105.084 19.227 105.072 19.0836C105.061 18.9317 105.104 18.784 105.203 18.6404C105.311 18.4962 105.454 18.3663 105.631 18.2505C105.996 18.0269 106.368 17.9002 106.748 17.8706C107.136 17.8404 107.439 17.8592 107.656 17.9272C107.874 17.9951 108.06 18.0952 108.215 18.2275C108.55 18.4985 108.73 18.7943 108.755 19.1149C108.78 19.4356 108.763 19.7637 108.704 20.0994C108.653 20.426 108.578 20.7629 108.478 21.1103C108.385 21.4486 108.284 21.7833 108.174 22.1145C108.064 22.4456 107.963 22.7336 107.872 22.9784L107.661 23.5424C107.604 23.6827 107.591 23.7262 107.62 23.6729C108.456 22.3005 109.007 21.4171 109.273 21.0229L110.076 19.8906C110.667 19.0806 111.138 18.5387 111.49 18.2651C112.202 17.7003 112.773 17.4011 113.203 17.3676C113.633 17.334 114 17.3606 114.304 17.4473C114.608 17.534 114.878 17.67 115.113 17.8554C115.61 18.2496 115.885 18.78 115.937 19.4466C115.989 20.1132 115.892 20.8211 115.644 21.5705C115.397 22.3198 115.177 22.9312 114.985 23.4046C114.8 23.8689 114.625 24.341 114.459 24.8209C113.936 26.2793 113.699 27.3292 113.749 27.9705C113.771 28.2574 114.01 28.3831 114.466 28.3475C114.821 28.3199 115.135 28.219 115.41 28.0448C115.694 27.8699 115.878 27.7791 115.962 27.7725C116.139 27.7587 116.235 27.8404 116.249 28.0176C116.307 28.7686 115.972 29.4272 115.244 29.9933C114.756 30.3793 114.297 30.5891 113.867 30.6227C113.436 30.6562 113.074 30.6378 112.78 30.5673C112.494 30.4962 112.234 30.3679 111.999 30.1825C111.466 29.7741 111.168 29.1691 111.106 28.3675C111.03 27.3887 111.242 26.1412 111.744 24.625C112.113 23.586 112.376 22.8736 112.532 22.4879L112.893 21.5557C113.112 20.9953 113.21 20.559 113.185 20.2468C113.161 19.9346 112.917 19.7966 112.453 19.8327ZM125.919 26.7801C124.786 28.8039 123.44 29.8766 121.879 29.9983C120.469 30.1081 119.462 29.4311 118.855 27.9673C118.646 27.4657 118.513 26.8395 118.454 26.0885C118.396 25.3375 118.442 24.5783 118.595 23.8109C118.755 23.0344 118.995 22.2941 119.313 21.5902C119.632 20.8862 120.018 20.2321 120.472 19.628C120.933 19.0148 121.435 18.4791 121.977 18.0209C123.106 17.0415 124.261 16.5058 125.442 16.4137C126.624 16.3217 127.51 16.8086 128.103 17.8745C128.196 17.7569 128.28 17.64 128.356 17.5237C128.431 17.399 128.515 17.2821 128.608 17.173C128.811 16.9365 128.992 16.812 129.152 16.7995C129.321 16.7863 129.496 16.8024 129.678 16.8476C129.868 16.8922 130.052 16.9586 130.229 17.0467C130.661 17.2592 130.835 17.4748 130.75 17.6937C130.364 18.734 130.053 19.7514 129.816 20.7461L128.409 26.8662C127.285 31.5125 125.64 34.5864 123.474 36.0881C122.902 36.4892 122.399 36.7321 121.964 36.8169C121.53 36.9102 121.214 36.9391 121.016 36.9036C120.818 36.8681 120.639 36.8098 120.48 36.7288C120.135 36.5435 119.955 36.3665 119.942 36.1978C119.919 35.9024 120.099 35.7059 120.482 35.6081C120.873 35.5097 121.274 35.3172 121.685 35.0305C122.096 34.7523 122.482 34.4208 122.843 34.0362C124.322 32.4352 125.348 30.0166 125.919 26.7801ZM121.78 22.6841C121.608 23.3087 121.483 23.9466 121.407 24.5977C121.329 25.2404 121.307 25.7643 121.338 26.1693C121.37 26.5743 121.406 26.8813 121.448 27.0903C121.49 27.2993 121.555 27.481 121.643 27.6354C121.84 27.9766 122.103 28.1344 122.432 28.1088C122.761 28.0831 123.077 27.9439 123.38 27.6911C123.682 27.4298 123.994 27.0829 124.317 26.6503C124.64 26.2176 124.957 25.7133 125.269 25.1372C125.581 24.5611 125.872 23.9441 126.143 23.2863C126.743 21.8303 127.137 20.4541 127.324 19.1576C127.264 18.9247 127.101 18.6954 126.838 18.4697C126.32 18.0431 125.868 17.845 125.48 17.8752C125.092 17.9054 124.713 18.058 124.344 18.333C123.974 18.5995 123.628 18.9533 123.306 19.3944C122.992 19.8264 122.704 20.3284 122.443 20.9006C122.181 21.4643 121.96 22.0588 121.78 22.6841ZM4.39218 70.9556C5.76843 69.7702 7.02582 66.8963 8.16435 62.3337C8.82314 59.6762 9.24008 57.2922 9.41517 55.1817C9.46261 54.5923 9.47417 54.1414 9.44984 53.8292C9.1052 53.8731 8.79179 53.9909 8.50961 54.1827L7.60276 54.8009C7.35236 54.9647 6.99331 54.8781 6.5256 54.541C6.06633 54.2033 5.8437 53.9065 5.85773 53.6508C5.87953 53.3859 6.00654 53.1638 6.23874 52.9844C6.47873 52.7959 6.75866 52.6298 7.07853 52.486C7.75138 52.1874 8.31984 52.02 8.78393 51.9838C9.25645 51.947 9.67287 51.9527 10.0332 52.001C10.4013 52.0403 10.7396 52.1328 11.048 52.2785C11.7533 52.614 12.1427 53.144 12.2161 53.8683C12.3479 55.123 12.0881 57.291 11.4369 60.3724C10.4077 65.249 9.02339 68.7271 7.28388 70.8067C6.8106 71.3784 6.30306 71.783 5.76128 72.0204C5.614 72.0913 5.4602 72.133 5.29988 72.1455C5.148 72.1574 5.00647 72.1387 4.8753 72.0895C4.74478 72.0487 4.63405 71.9894 4.54309 71.9116C4.3534 71.7651 4.25099 71.5948 4.23587 71.4008C4.22074 71.2067 4.27285 71.0583 4.39218 70.9556ZM21.1088 67.4881C21.3535 67.469 21.4887 67.624 21.5144 67.9531C21.5361 68.2316 21.4727 68.5081 21.3244 68.7829C21.1347 69.29 20.7152 69.7896 20.0659 70.2817C19.3284 70.84 18.5673 71.1498 17.7826 71.2109C16.4241 71.3168 15.516 70.7763 15.0585 69.5895C14.5157 68.1802 14.9229 65.0711 16.2799 60.2623C15.303 60.2536 14.7624 60.1259 14.6583 59.8794C14.6271 59.8054 14.6082 59.7262 14.6016 59.6418C14.5944 59.549 14.6241 59.4406 14.6909 59.3165C14.766 59.1918 14.8626 59.0697 14.9807 58.9501C15.2569 58.6824 15.5469 58.5367 15.8507 58.5131L16.8506 58.4351C17.5955 56.2293 18.1505 54.9636 18.5157 54.638C18.6908 54.4886 18.8923 54.4049 19.1201 54.3872C19.3479 54.3694 19.5401 54.3842 19.6965 54.4314C19.853 54.4786 19.9946 54.5525 20.1213 54.653C20.411 54.8851 20.5681 55.1572 20.5924 55.4694C20.6056 55.6382 20.5701 55.8362 20.4859 56.0635L19.7081 58.1742L20.0119 58.1506C20.535 58.1098 20.9566 58.0727 21.2766 58.0393C21.2766 58.0393 21.5167 58.0163 21.997 57.9704C22.1567 57.9495 22.3547 57.9298 22.5909 57.9114C22.8356 57.8923 22.9649 57.9714 22.9787 58.1486C23.0655 59.2624 21.7926 59.9219 19.1599 60.127L19.0587 60.1349L18.3716 62.4296C17.6064 65.1379 17.2649 67.0194 17.3471 68.0741C17.3701 68.3695 17.4557 68.5962 17.6039 68.7545C17.7514 68.9043 18.0108 68.9647 18.382 68.9358C18.7533 68.9068 19.0859 68.8173 19.3798 68.667C19.6737 68.5168 19.9286 68.3568 20.1446 68.1872C20.36 68.0091 20.5428 67.8505 20.6933 67.7115C20.8522 67.5718 20.9907 67.4973 21.1088 67.4881ZM23.0978 66.2125C23.0743 65.4758 23.1421 64.7659 23.3011 64.0829C23.4594 63.3914 23.6915 62.7196 23.9972 62.0676C24.3023 61.4071 24.6694 60.78 25.0985 60.1863C25.5354 59.5835 26.0159 59.0494 26.5399 58.5841C27.6762 57.5872 28.8603 57.0408 30.0922 56.9448C31.5351 56.8323 32.5434 57.3522 33.1171 58.5045C33.3174 58.8963 33.435 59.3711 33.47 59.9286C33.5043 60.4778 33.4386 60.9965 33.2729 61.4848C33.1066 61.9646 32.8571 62.4128 32.5245 62.8292C32.1997 63.2365 31.8002 63.6115 31.3261 63.9541C30.8604 64.296 30.3446 64.5951 29.7788 64.8514C28.6135 65.3667 27.348 65.686 25.9824 65.8094C25.9579 65.9302 25.9506 66.109 25.9606 66.3459C25.9705 66.5829 26.0166 66.8467 26.0986 67.1374C26.1801 67.4197 26.3014 67.6692 26.4626 67.8858C26.8058 68.3684 27.2643 68.5874 27.8381 68.5426C28.8169 68.4664 29.748 68.1052 30.6315 67.4591C30.9454 67.2393 31.1958 67.0203 31.3825 66.802C31.577 66.5746 31.7502 66.455 31.9021 66.4432C32.054 66.4314 32.192 66.514 32.3162 66.6911C32.4481 66.8591 32.5229 67.057 32.5407 67.2848C32.5755 67.732 32.4792 68.13 32.2517 68.4788C31.2714 69.6249 29.7307 70.2798 27.6297 70.4435C26.3893 70.5402 25.3647 70.2465 24.5558 69.5625C23.6463 68.7844 23.1603 67.6678 23.0978 66.2125ZM29.9449 58.6498C29.059 58.7189 28.2541 59.3928 27.5303 60.6717C26.9199 61.7719 26.4597 63.0557 26.1496 64.523C27.5475 64.2698 28.7276 63.6175 29.6899 62.5662C30.5723 61.5806 30.981 60.6702 30.9159 59.8348C30.8508 58.9994 30.5272 58.6044 29.9449 58.6498ZM44.2519 58.2479C43.7625 58.2861 42.9233 59.0646 41.7343 60.5834C40.8501 61.7644 40.2103 62.6505 39.8149 63.2416L38.7883 64.7732C38.3712 65.7395 38.0474 66.5415 37.817 67.1792L37.2479 68.7007C37.099 69.0773 36.963 69.3468 36.8398 69.5092C36.7244 69.6626 36.5528 69.7481 36.325 69.7658C36.1056 69.7829 35.8871 69.7575 35.6696 69.6896C35.4612 69.6294 35.2761 69.542 35.1144 69.4272C34.7727 69.1822 34.5893 68.8994 34.5643 68.5787C34.5545 68.4522 34.6279 68.196 34.7846 67.8103L35.1857 66.7476C35.3139 66.432 35.4608 66.03 35.6265 65.5417L36.2002 63.7525C37.0018 61.1857 37.3744 59.5395 37.3179 58.8138C37.2876 58.4256 37.1387 58.1486 36.8711 57.9827L36.6041 57.8252C36.5151 57.7727 36.4651 57.6748 36.4539 57.5313C36.442 57.3795 36.4857 57.2317 36.5849 57.0882C36.6925 56.944 36.8352 56.814 37.0129 56.6983C37.3775 56.4746 37.7496 56.348 38.1294 56.3184C38.5175 56.2881 38.8246 56.3067 39.0505 56.3739C39.2765 56.4412 39.4752 56.5403 39.6467 56.6713C39.9904 56.9416 40.1747 57.2371 40.1997 57.5578C40.2247 57.8784 40.2078 58.2066 40.1491 58.5422C40.0897 58.8694 40.0098 59.2067 39.9096 59.5541C39.8087 59.8931 39.6986 60.2242 39.5795 60.5476C39.2986 61.2996 39.1225 61.7632 39.0512 61.9386C38.9878 62.1048 38.9713 62.1655 39.0018 62.1207C40.3901 60.0005 41.2262 58.7469 41.5101 58.3597C42.1013 57.5581 42.5675 57.004 42.9086 56.6972C43.5364 56.1474 44.1456 55.8495 44.7363 55.8035C45.3354 55.7568 45.8266 55.9053 46.2099 56.2489C46.5932 56.5926 46.8086 57.0682 46.8559 57.6757C46.8973 58.2073 46.811 58.8422 46.5969 59.5805C46.3828 60.3188 46.2405 60.835 46.17 61.1291L47.8392 58.5286L48.7804 57.2074C49.3503 56.4584 49.8629 55.9558 50.3183 55.6995C50.7737 55.4433 51.1491 55.3037 51.4444 55.2807C51.7482 55.257 52.0478 55.2889 52.3433 55.3762C52.6471 55.4629 52.9082 55.5996 53.1265 55.7863C53.5891 56.1662 53.847 56.6979 53.9002 57.3814C53.9515 58.0396 53.8523 58.7264 53.6024 59.442C53.3526 60.1576 53.1312 60.7479 52.9382 61.2128C52.7446 61.6694 52.5597 62.1295 52.3836 62.5931C51.8722 63.9828 51.6418 65.0024 51.6924 65.6522C51.728 66.1078 51.9313 66.3212 52.3026 66.2922C52.657 66.2646 52.9717 66.1637 53.2468 65.9894C53.5303 65.8145 53.7142 65.7238 53.7986 65.7172C53.9758 65.7034 54.0713 65.7851 54.0851 65.9623C54.1436 66.7133 53.8087 67.3718 53.0803 67.938C52.5925 68.324 52.1335 68.5338 51.7032 68.5674C51.2813 68.6002 50.9356 68.5762 50.6661 68.4954C50.3966 68.4145 50.1479 68.2726 49.9198 68.0697C49.4092 67.6171 49.1252 67.0237 49.068 66.2896C49.0108 65.5555 49.051 64.8733 49.1887 64.2428C49.3263 63.6124 49.4993 63.0004 49.7077 62.4069C49.9155 61.805 50.1272 61.2536 50.3429 60.7529C50.5663 60.2432 50.7343 59.8396 50.847 59.5421C51.071 58.9304 51.1721 58.4854 51.1504 58.2069C51.1248 57.8778 50.939 57.7268 50.593 57.7537C50.1374 57.7893 49.3777 58.6082 48.3141 60.2107C47.5111 61.4533 46.9567 62.3454 46.6508 62.8871L45.8761 64.2208C45.4591 65.1872 45.1438 65.9885 44.9302 66.6248L44.3991 68.1434C44.2671 68.5187 44.1479 68.7869 44.0416 68.948C43.9347 69.1006 43.7757 69.1852 43.5648 69.2016C43.3538 69.2181 43.1444 69.2004 42.9367 69.1487C42.7373 69.0963 42.5617 69.0209 42.4097 68.9224C42.0615 68.7033 41.8769 68.4588 41.8559 68.1888C41.8342 67.9103 41.8935 67.5279 42.0339 67.0416C42.182 66.5461 42.3681 65.9926 42.5921 65.3809L44.0721 61.4963C44.5964 60.0547 44.8441 59.1483 44.8152 58.777C44.7856 58.3973 44.5978 58.221 44.2519 58.2479ZM45.7831 61.7195C45.7915 61.7189 45.7954 61.7143 45.7948 61.7059L45.8054 61.6796C45.7899 61.6978 45.7824 61.7111 45.7831 61.7195ZM55.899 65.8719C55.8786 65.6103 55.9147 65.3655 56.0073 65.1376C56.1077 64.9006 56.2363 64.6995 56.3933 64.5345C56.722 64.1778 57.0804 63.9843 57.4686 63.9541C57.8061 63.9278 57.9884 64.0876 58.0153 64.4336C58.0837 65.3111 58.4225 65.9002 59.0317 66.2008C59.2525 66.3109 59.4768 66.3571 59.7046 66.3393C59.9325 66.3216 60.1246 66.2811 60.2809 66.218C60.4373 66.1549 60.5787 66.0632 60.7052 65.943C60.9899 65.6746 61.1191 65.3717 61.0928 65.0342C61.0665 64.6966 60.9665 64.3946 60.7929 64.128C60.6187 63.8529 60.4055 63.5682 60.1533 63.2737L59.353 62.3174C58.2352 61.0462 57.6319 59.8411 57.5432 58.7019C57.4695 57.7569 57.8036 56.8692 58.5453 56.0389C59.3889 55.0988 60.5237 54.5731 61.9497 54.462C63.1985 54.3647 64.1971 54.5967 64.9455 55.1581C65.558 55.6112 65.8893 56.1584 65.9393 56.7997C65.9912 57.4663 65.7795 58.0176 65.3042 58.4537C64.8761 58.8436 64.4307 59.0099 63.9678 58.9525C63.762 58.9261 63.598 58.8371 63.4758 58.6853C63.353 58.5251 63.3171 58.3369 63.3681 58.1206C63.4192 57.9044 63.4359 57.6824 63.4181 57.4546C63.4004 57.2268 63.3417 57.0191 63.2422 56.8316C63.1427 56.6441 63.016 56.4885 62.862 56.3646C62.545 56.1092 62.2219 55.9943 61.8928 56.0199C61.5722 56.0449 61.3094 56.1036 61.1043 56.196C60.8986 56.2799 60.7209 56.3957 60.5711 56.5432C60.2657 56.8726 60.1304 57.2609 60.1653 57.7081C60.1995 58.1469 60.305 58.5207 60.4819 58.8295C60.6587 59.1383 60.8694 59.4445 61.1137 59.748C61.3666 60.0509 61.6366 60.3567 61.9238 60.6654C62.211 60.9741 62.4785 61.3013 62.7261 61.647C63.3241 62.4578 63.6485 63.1881 63.6991 63.8378C63.7491 64.4791 63.6562 65.0296 63.4203 65.4895C63.1839 65.9408 62.8626 66.3394 62.4566 66.6851C61.5901 67.4403 60.5873 67.8623 59.4482 67.951C58.3597 68.0359 57.4787 67.8414 56.805 67.3675C56.2477 66.9695 55.9457 66.471 55.899 65.8719Z" fill="#414165"/>
<path d="M90.5941 61.3118C93.4984 60.1476 95.3389 60.0147 98.4532 60.4327C104.903 61.2982 111.069 62.3985 117.51 62.1509C123.851 61.9072 126.955 62.6237 132.864 59.4966C136.093 57.7882 143.985 53.2531 146.178 49.9595C149.449 45.0466 152.936 40.0841 155.519 34.484C156.865 31.5683 157.482 26.6572 160.02 24.9885" stroke="#FF6B00" stroke-width="3" stroke-linecap="round"/>
<path d="M145.828 23.4695C151.361 22.5131 156.965 21.2278 162.548 20.579C165.866 20.1935 165.521 37.5261 165.204 40.471" stroke="#FF6B00" stroke-width="3" stroke-linecap="round"/>
</svg>
